<svg xmlns="http://www.w3.org/2000/svg" width="1800" height="570" viewBox="0 0 1800 570">
  <defs>
    <linearGradient id="bg" x1="0" y1="0" x2="1" y2="1">
      <stop offset="0" stop-color="#020713"/>
      <stop offset="0.55" stop-color="#071b35"/>
      <stop offset="1" stop-color="#020914"/>
    </linearGradient>
    <radialGradient id="badge" cx="48%" cy="42%" r="65%">
      <stop offset="0" stop-color="#0b2c54"/>
      <stop offset="1" stop-color="#020713"/>
    </radialGradient>
    <linearGradient id="orange" x1="0" y1="0" x2="0" y2="1">
      <stop offset="0" stop-color="#ff9b25"/>
      <stop offset="0.5" stop-color="#ff7417"/>
      <stop offset="1" stop-color="#b84006"/>
    </linearGradient>
    <linearGradient id="steel" x1="0" y1="0" x2="1" y2="1">
      <stop offset="0" stop-color="#ffffff"/>
      <stop offset="0.45" stop-color="#b9c1c9"/>
      <stop offset="1" stop-color="#f8faff"/>
    </linearGradient>
    <filter id="glow" x="-40%" y="-40%" width="180%" height="180%">
      <feGaussianBlur stdDeviation="7" result="b"/>
      <feMerge><feMergeNode in="b"/><feMergeNode in="SourceGraphic"/></feMerge>
    </filter>
  </defs>

  <rect width="1800" height="570" rx="30" fill="url(#bg)"/>
  <rect x="14" y="14" width="1772" height="542" rx="26" fill="none" stroke="#ff7417" stroke-width="5"/>
  <rect x="27" y="27" width="1746" height="516" rx="20" fill="none" stroke="#4da9d9" stroke-width="2" opacity="0.5"/>

  <g fill="#f8faff" opacity="0.9">
    <circle cx="60" cy="75" r="2.5"/><circle cx="145" cy="44" r="1.8"/><circle cx="465" cy="70" r="2"/>
    <circle cx="790" cy="56" r="2.2"/><circle cx="930" cy="96" r="1.6"/><circle cx="1080" cy="48" r="2.4"/>
    <circle cx="1234" cy="100" r="2"/><circle cx="1430" cy="66" r="2.8"/><circle cx="1668" cy="108" r="1.8"/>
    <circle cx="1000" cy="245" r="1.8"/><circle cx="1160" cy="328" r="2.2"/><circle cx="1510" cy="292" r="2.5"/>
    <circle cx="1715" cy="386" r="2"/><circle cx="870" cy="468" r="2"/><circle cx="1310" cy="490" r="1.8"/>
  </g>
  <g fill="#ffb740" opacity="0.95">
    <circle cx="720" cy="104" r="2"/><circle cx="1030" cy="158" r="2.2"/><circle cx="1384" cy="150" r="1.8"/>
    <circle cx="1580" cy="220" r="2.4"/><circle cx="1210" cy="438" r="2"/><circle cx="1680" cy="485" r="1.8"/>
  </g>
  <g fill="#4da9d9" opacity="0.9">
    <circle cx="840" cy="138" r="2"/><circle cx="1120" cy="205" r="1.8"/><circle cx="1460" cy="418" r="2.2"/>
  </g>
  <g filter="url(#glow)">
    <path d="M1655 74 l7 19 19 7-19 7-7 19-7-19-19-7 19-7z" fill="#ffb740"/>
    <path d="M1528 404 l5 13 13 5-13 5-5 13-5-13-13-5 13-5z" fill="#f8faff"/>
    <path d="M1240 70 l4 11 11 4-11 4-4 11-4-11-11-4 11-4z" fill="#4da9d9"/>
  </g>

  <g transform="translate(72 43)">
    <circle cx="235" cy="235" r="220" fill="#01050a" stroke="#101820" stroke-width="18"/>
    <circle cx="235" cy="235" r="212" fill="url(#badge)" stroke="#ff7417" stroke-width="8"/>
    <circle cx="235" cy="235" r="197" fill="none" stroke="#4da9d9" stroke-width="2" opacity="0.42"/>
    <g fill="#f8faff">
      <path d="M63 207 l6 17 17 6-17 6-6 17-6-17-17-6 17-6z"/>
      <path d="M365 130 l4 11 11 4-11 4-4 11-4-11-11-4 11-4z"/>
      <circle cx="92" cy="105" r="2"/><circle cx="342" cy="84" r="2"/><circle cx="389" cy="235" r="2"/>
    </g>
    <g fill="#ff7417"><circle cx="112" cy="316" r="3"/><circle cx="379" cy="295" r="3"/></g>
    <path d="M41 328 C130 390 315 395 429 304" fill="none" stroke="#f8faff" stroke-width="5" opacity="0.75"/>
    <path d="M47 338 C160 402 340 382 430 270" fill="none" stroke="#ff7417" stroke-width="7"/>
    <g fill="#080a0d" stroke="#ff7417" stroke-width="2.5" stroke-linejoin="round">
      <polygon points="235,52 255,91 282,50 289,103 331,72 316,121 365,103 337,144 392,144 349,173 400,198 348,211 393,245 341,246 373,292 323,273 337,326 292,296 289,355 254,315 235,378 216,315 181,355 178,296 133,326 147,273 97,292 129,246 77,245 122,211 70,198 121,173 78,144 133,144 105,103 154,121 139,72 181,103 188,50 215,91"/>
    </g>
    <g fill="url(#orange)" opacity="0.98">
      <polygon points="235,61 248,103 235,127 222,103"/>
      <polygon points="190,70 211,111 186,129 169,97"/>
      <polygon points="280,70 301,97 284,129 259,111"/>
      <polygon points="139,111 178,137 151,157 117,142"/>
      <polygon points="331,111 353,142 319,157 292,137"/>
      <polygon points="105,174 151,183 132,215 94,207"/>
      <polygon points="365,174 376,207 338,215 319,183"/>
      <polygon points="112,247 151,238 156,276 127,294"/>
      <polygon points="358,247 343,276 314,238 353,294"/>
      <polygon points="153,300 186,278 195,322 169,345"/>
      <polygon points="317,300 301,345 275,322 284,278"/>
    </g>
    <polygon points="164,156 196,123 235,140 274,123 306,156 299,241 270,297 235,321 200,297 171,241" fill="#c64e09"/>
    <polygon points="178,160 205,136 235,150 265,136 292,160 278,204 255,223 215,223 192,204" fill="#ff7417"/>
    <polygon points="193,218 235,197 277,218 267,270 235,296 203,270" fill="#a93b09"/>
    <polygon points="219,240 235,230 251,240 247,257 235,264 223,257" fill="#080a0d"/>
    <path d="M214 278 Q235 294 256 278" fill="none" stroke="#f3b05a" stroke-width="4" stroke-linecap="round"/>
    <path d="M183 181 L218 170 L229 187 L199 197 Z" fill="#080a0d"/>
    <path d="M287 181 L252 170 L241 187 L271 197 Z" fill="#080a0d"/>
    <path d="M199 184 L217 180 L211 193 L199 193 Z" fill="#ffb740"/>
    <path d="M271 184 L253 180 L259 193 L271 193 Z" fill="#ffb740"/>
    <g fill="none" stroke="#050505" stroke-width="9" stroke-linejoin="round">
      <polygon points="176,167 226,169 221,213 180,210"/>
      <polygon points="244,169 294,167 290,210 249,213"/>
      <path d="M224 178 Q235 171 246 178"/>
      <path d="M176 174 L155 166 M294 174 L315 166"/>
    </g>
    <g fill="none" stroke="#ff9b25" stroke-width="2">
      <polygon points="180,171 222,173 217,207 184,205"/>
      <polygon points="248,173 290,171 286,205 253,207"/>
    </g>
    <g fill="#0b0c0e">
      <polygon points="180,269 200,299 208,338 224,311 235,365 246,311 262,338 270,299 290,269 277,328 257,358 235,392 213,358 193,328"/>
    </g>
    <g fill="#ff7417">
      <polygon points="207,301 218,335 224,311"/><polygon points="263,301 252,335 246,311"/><polygon points="235,324 242,353 235,374 228,353"/>
    </g>
  </g>

  <g font-family="Arial, Helvetica, sans-serif">
    <text x="600" y="112" fill="#ffb740" font-size="28" font-weight="700" letter-spacing="5">STAR DAVOS // MISSION CONTROL</text>
    <text x="600" y="194" fill="url(#steel)" font-size="73" font-weight="900" letter-spacing="1">BUILD SECURE SYSTEMS.</text>
    <text x="600" y="272" fill="#ff7417" font-size="66" font-weight="900" letter-spacing="1">AUTOMATE EVERYTHING.</text>
    <text x="600" y="340" fill="#f8faff" font-size="31" font-weight="700" letter-spacing="3">SECURITY  •  AI  •  AUTOMATION  •  INFRASTRUCTURE</text>
    <line x1="600" y1="380" x2="1630" y2="380" stroke="#ff7417" stroke-width="2.5"/>
    <text x="600" y="426" fill="#4da9d9" font-size="22" font-family="monospace" letter-spacing="3">DEFEND  •  ANALYZE  •  AUTOMATE  •  INNOVATE</text>
    <text x="600" y="497" fill="#f8faff" font-size="23" font-weight="800" letter-spacing="1">STAR DAVOS SOFTWARE</text>
    <text x="940" y="497" fill="#ffb740" font-size="20" font-family="monospace" letter-spacing="2">BUILD • SECURE • AUTOMATE • EXPLORE</text>
  </g>
</svg>
